<svg id="Layer_5" enable-background="new 0 0 64 64" height="512" viewBox="0 0 64 64" width="512" xmlns="http://www.w3.org/2000/svg" xmlns:xlink="http://www.w3.org/1999/xlink"><linearGradient id="SVGID_1_" gradientUnits="userSpaceOnUse" x1="32" x2="32" y1="63" y2="1"><stop offset="0" stop-color="#9f2fff"/><stop offset="1" stop-color="#0bb1d3"/></linearGradient><path d="m11 7h-2v-2h2zm-4-2h-2v2h2zm8 0h-2v2h2zm48-1v44c0 1.654-1.346 3-3 3h-2.423l-6.928 12h-15.149l-7.072-12h-24.428c-1.654 0-3-1.346-3-3v-44c0-1.654 1.346-3 3-3h56c1.654 0 3 1.346 3 3zm-60 0v5h13.586l2-2h42.414v-3c0-.551-.449-1-1-1h-56c-.551 0-1 .449-1 1zm52.845 46-6.351-11h-12.851l-6.482 11 6.482 11h12.852zm5.155-2v-39h-41.586l-2 2h-14.414v37c0 .552.449 1 1 1h24.429l7.071-12h15.148l6.928 12h2.424c.551 0 1-.448 1-1zm-25.019 5.375-1.699 1.055 1.055 1.699 1.699-1.055zm-2.11-3.398-1.699 1.055 1.055 1.699 1.699-1.055zm2.521 7.851 1.055 1.699 1.699-1.055-1.055-1.699zm9.608-14.016-.043.611-.856 4.76c-.117 1.01-1.023 1.817-2.101 1.817s-1.984-.807-2.11-1.877l-.89-5.311c0-1.55 1.262-2.812 2.812-2.812h.375c1.551 0 2.813 1.262 2.813 2.812zm-1.998-.06c-.002-.388-.366-.752-.814-.752h-.375c-.439 0-.799.351-.812.787l.021.34.846 4.703c.032.246.241.186.256.061zm1.998 12.248c0 1.654-1.346 3-3 3s-3-1.346-3-3 1.346-3 3-3 3 1.346 3 3zm-2 0c0-.552-.449-1-1-1s-1 .448-1 1 .449 1 1 1 1-.448 1-1zm-33-29v6c0 1.103-.897 2-2 2h-2c-1.103 0-2-.897-2-2v-6c0-1.103.897-2 2-2h2c1.103 0 2 .897 2 2zm-1.999 6-.001-6h-2v6zm3.999 2h2v-10h-2zm-2 4v6c0 1.103-.897 2-2 2h-2c-1.103 0-2-.897-2-2v-6c0-1.103.897-2 2-2h2c1.103 0 2 .897 2 2zm-2 0h-2v6h2zm4 8h2v-10h-2zm10-8v6c0 1.103-.897 2-2 2h-2c-1.103 0-2-.897-2-2v-6c0-1.103.897-2 2-2h2c1.103 0 2 .897 2 2zm-2 0h-2v6h2zm-10-24v6c0 1.103-.897 2-2 2h-2c-1.103 0-2-.897-2-2v-6c0-1.103.897-2 2-2h2c1.103 0 2 .897 2 2zm-2 0h-2v6h2zm8 8h-2c-1.103 0-2-.897-2-2v-6c0-1.103.897-2 2-2h2c1.103 0 2 .897 2 2v6c0 1.103-.897 2-2 2zm-2-2h2v-6h-2zm8 6v6c0 1.103-.897 2-2 2h-2c-1.103 0-2-.897-2-2v-6c0-1.103.897-2 2-2h2c1.103 0 2 .897 2 2zm-1.999 6-.001-6h-2v6zm9.999-6v6c0 1.103-.897 2-2 2h-2c-1.103 0-2-.897-2-2v-6c0-1.103.897-2 2-2h2c1.103 0 2 .897 2 2zm-1.999 6-.001-6h-2v6zm11.999 2h2v-10h-2zm-4 0h2v-10h-2zm14-8v6c0 1.103-.897 2-2 2h-2c-1.103 0-2-.897-2-2v-6c0-1.103.897-2 2-2h2c1.103 0 2 .897 2 2zm-1.999 6-.001-6h-2v6zm-24.001 14h2v-10h-2zm-4-24h2v-10h-2zm6-10h-2v10h2zm16 2v6c0 1.103-.897 2-2 2h-2c-1.103 0-2-.897-2-2v-6c0-1.103.897-2 2-2h2c1.103 0 2 .897 2 2zm-2 0h-2v6h2zm10 0v6c0 1.103-.897 2-2 2h-2c-1.103 0-2-.897-2-2v-6c0-1.103.897-2 2-2h2c1.103 0 2 .897 2 2zm-2 0h-2v6h2zm4 8h2v-10h-2zm4 0h2v-10h-2zm-4 12h2v-10h-2zm4 0h2v-10h-2z" fill="url(#SVGID_1_)"/></svg>