<svg id="Layer_5" enable-background="new 0 0 64 64" height="512" viewBox="0 0 64 64" width="512" xmlns="http://www.w3.org/2000/svg" xmlns:xlink="http://www.w3.org/1999/xlink"><linearGradient id="SVGID_1_" gradientUnits="userSpaceOnUse" x1="32" x2="32" y1="63" y2="1"><stop offset="0" stop-color="#9f2fff"/><stop offset="1" stop-color="#0bb1d3"/></linearGradient><path d="m59 20.641v-19.641h-18v12h-13.263c-.892-3.445-4.018-6-7.737-6s-6.845 2.555-7.737 6h-6.263c-2.757 0-5 2.243-5 5v28c0 2.757 2.243 5 5 5h16v2h-5.764c-1.144 0-2.172.636-2.684 1.658l-1.552 3.106v5.236h32v-5.236l-1.553-3.105c-.511-1.023-1.54-1.659-2.683-1.659h-5.764v-2h16c2.757 0 5-2.243 5-5v-4.003c4.693-1.963 8-6.6 8-11.997 0-3.675-1.54-6.992-4-9.359zm-9 20.359c-1.36 0-2.806-1.499-3.792-4h7.584c-.986 2.501-2.432 4-3.792 4zm-4.501-21.026c-.557.858-1.034 1.882-1.421 3.026h-2.556c1.068-1.292 2.43-2.329 3.977-3.026zm8.293 3.026h-7.584c.986-2.501 2.432-4 3.792-4s2.806 1.499 3.792 4zm.627 2c.295 1.2.493 2.541.556 4h-9.949c.062-1.459.261-2.8.556-4zm-14.205 0h3.307c-.271 1.242-.439 2.587-.495 4h-3.976c.13-1.43.538-2.779 1.164-4zm2.812 6c.056 1.413.223 2.758.495 4h-3.307c-.626-1.221-1.034-2.57-1.164-4zm1.051 6c.388 1.144.864 2.168 1.421 3.026-1.547-.697-2.909-1.734-3.977-3.026zm1.504-2c-.295-1.2-.493-2.541-.556-4h9.949c-.062 1.459-.261 2.8-.556 4zm11.393-4h3.976c-.13 1.43-.537 2.779-1.164 4h-3.307c.271-1.242.439-2.587.495-4zm0-2c-.056-1.413-.223-2.758-.495-4h3.307c.626 1.221 1.034 2.57 1.164 4zm-1.051-6c-.388-1.144-.865-2.168-1.421-3.026 1.547.697 2.909 1.734 3.977 3.026zm1.077-20v16.063c-2.023-1.299-4.422-2.063-7-2.063s-4.977.764-7 2.063v-16.063zm-16 12v5.641c-2.46 2.367-4 5.684-4 9.359 0 4.633 2.445 8.697 6.104 11h-8.104v-5c0-6.735-4.462-12.445-10.585-14.335 2.158-1.434 3.585-3.885 3.585-6.665zm-30 18v8h-4v-5c0-5.058 2.91-9.44 7.138-11.588.411 5.77 1.849 11.335 4.285 16.588h-5.423v-8zm22 8h-4v-8h-2v8h-5.423c2.436-5.252 3.874-10.817 4.285-16.588 4.228 2.148 7.138 6.53 7.138 11.588zm-16.699-17.457 2.486 4.35-1.866 2.24c-.436-2.141-.707-4.321-.833-6.529.07-.022.143-.039.213-.061zm3.699 6.019 2.509 3.011c-.634 2.416-1.474 4.778-2.509 7.079-1.034-2.302-1.875-4.663-2.509-7.079zm3.912-5.958c-.125 2.208-.396 4.389-.832 6.53l-1.867-2.24 2.486-4.35c.07.021.142.038.213.06zm-2.272-.489-1.64 2.869-1.64-2.869c.538-.068 1.083-.115 1.64-.115s1.102.047 1.64.115zm-1.64 19.885h4v2h-3c-.552 0-1-.448-1-1zm6 0h4v2h-4zm6 0h4v1c0 .552-.448 1-1 1h-3zm-12-34c3.309 0 6 2.691 6 6s-2.691 6-6 6-6-2.691-6-6 2.691-6 6-6zm-14 6h6c0 2.78 1.427 5.231 3.585 6.665-6.123 1.89-10.585 7.6-10.585 14.335v5h-2v-23c0-1.654 1.346-3 3-3zm10.236 40h5.764v2h-7.382l.724-1.447c.17-.341.512-.553.894-.553zm-2.236 6v-2h28v2zm25.764-6c.382 0 .725.212.895.553l.723 1.447h-7.382v-2zm-7.764 2h-8v-6h8zm18-8h-44c-1.654 0-3-1.346-3-3v-3h15v1c0 1.654 1.346 3 3 3h14c1.654 0 3-1.346 3-3v-1h15v3c0 1.654-1.346 3-3 3zm4.501-8.974c.557-.858 1.034-1.882 1.421-3.026h2.556c-1.068 1.292-2.43 2.329-3.977 3.026zm.499-33.026h-10v-2h10zm0 4h-10v-2h10zm0 4h-10v-2h10z" fill="url(#SVGID_1_)"/></svg>