<?xml version="1.0" encoding="UTF-8" standalone="no"?>
<!-- Created with Inkscape (http://www.inkscape.org/) -->

<svg
   xmlns:dc="http://purl.org/dc/elements/1.1/"
   xmlns:cc="http://creativecommons.org/ns#"
   xmlns:rdf="http://www.w3.org/1999/02/22-rdf-syntax-ns#"
   xmlns:svg="http://www.w3.org/2000/svg"
   xmlns="http://www.w3.org/2000/svg"
   xmlns:sodipodi="http://sodipodi.sourceforge.net/DTD/sodipodi-0.dtd"
   xmlns:inkscape="http://www.inkscape.org/namespaces/inkscape"
   width="3000"
   height="356.08267"
   viewBox="0 0 3000 356.0827"
   id="svg40450"
   version="1.1"
   inkscape:version="0.91 r13725"
   sodipodi:docname="lider.svg">
  <title
     id="title5427">Cinemark</title>
  <defs
     id="defs40452" />
  <sodipodi:namedview
     id="base"
     pagecolor="#ffffff"
     bordercolor="#666666"
     borderopacity="1.0"
     inkscape:pageopacity="0.0"
     inkscape:pageshadow="2"
     inkscape:zoom="0.21966667"
     inkscape:cx="1500"
     inkscape:cy="77.84205"
     inkscape:document-units="px"
     inkscape:current-layer="layer1"
     showgrid="false"
     inkscape:showpageshadow="false"
     fit-margin-top="20"
     fit-margin-bottom="20"
     fit-margin-left="20"
     fit-margin-right="20"
     units="px"
     inkscape:window-width="1366"
     inkscape:window-height="715"
     inkscape:window-x="-8"
     inkscape:window-y="-8"
     inkscape:window-maximized="1" />
  <metadata
     id="metadata40455">
    <rdf:RDF>
      <cc:Work
         rdf:about="">
        <dc:format>image/svg+xml</dc:format>
        <dc:type
           rdf:resource="http://purl.org/dc/dcmitype/StillImage" />
        <dc:title>Cinemark</dc:title>
      </cc:Work>
    </rdf:RDF>
  </metadata>
  <g
     inkscape:label="Capa 1"
     inkscape:groupmode="layer"
     id="layer1"
     transform="translate(-3251.7006,2000.9475)">
    <g
       id="g5505">
      <g
         transform="matrix(43.345324,0,0,-43.345324,6183.9948,-1938.7162)"
         id="g46761">
        <path
           inkscape:connector-curvature="0"
           id="path46763"
           style="fill:#000000;fill-opacity:1;fill-rule:nonzero;stroke:none"
           d="m 0,0 -0.323,0 0,0.383 0.385,0 C 0.135,0.383 0.188,0.365 0.22,0.331 0.253,0.296 0.269,0.251 0.269,0.195 0.269,0.155 0.262,0.122 0.246,0.097 0.232,0.072 0.213,0.052 0.188,0.037 0.164,0.023 0.135,0.013 0.103,0.008 0.07,0.003 0.036,0 0,0 m -0.478,0.506 0,-1.098 0.155,0 0,0.469 0.379,0 c 0.038,0 0.068,-0.006 0.091,-0.017 C 0.17,-0.15 0.188,-0.164 0.203,-0.183 0.217,-0.2 0.227,-0.221 0.234,-0.246 0.24,-0.27 0.245,-0.294 0.25,-0.321 0.255,-0.348 0.259,-0.375 0.26,-0.403 0.261,-0.43 0.262,-0.456 0.263,-0.481 0.264,-0.505 0.266,-0.526 0.269,-0.546 0.274,-0.565 0.281,-0.58 0.292,-0.592 l 0.173,0 C 0.449,-0.573 0.436,-0.552 0.428,-0.529 0.42,-0.504 0.414,-0.478 0.41,-0.452 0.405,-0.425 0.403,-0.398 0.402,-0.37 0.4,-0.343 0.399,-0.316 0.397,-0.289 c -0.004,0.027 -0.009,0.052 -0.015,0.077 -0.005,0.025 -0.015,0.047 -0.028,0.066 -0.012,0.02 -0.029,0.038 -0.05,0.052 -0.021,0.015 -0.048,0.025 -0.082,0.031 l 0,0.003 c 0.071,0.019 0.122,0.053 0.153,0.103 0.033,0.05 0.049,0.109 0.049,0.175 0,0.089 -0.031,0.16 -0.094,0.211 C 0.268,0.48 0.181,0.506 0.07,0.506 l -0.548,0 z" />
      </g>
      <g
         transform="matrix(43.345324,0,0,-43.345324,6138.9547,-1936.9737)"
         id="g46765">
        <path
           inkscape:connector-curvature="0"
           id="path46767"
           style="fill:none;stroke:#000000;stroke-width:0.123;stroke-linecap:butt;stroke-linejoin:miter;stroke-miterlimit:3.86400008;stroke-dasharray:none;stroke-opacity:1"
           d="M 0,0 C 0,0.526 0.437,0.953 0.976,0.953 1.514,0.953 1.951,0.526 1.951,0 1.951,-0.526 1.514,-0.953 0.976,-0.953 0.437,-0.953 0,-0.526 0,0 Z" />
      </g>
      <path
         inkscape:connector-curvature="0"
         id="path46869"
         style="fill:#fff200;fill-opacity:1;fill-rule:nonzero;stroke:none"
         d="m 3645.5106,-1940.3937 65.1913,0 0,177.0223 -65.1913,0 0,-177.0223 z" />
      <g
         transform="matrix(43.345324,0,0,-43.345324,3883.9792,-1763.354)"
         id="g46871">
        <path
           inkscape:connector-curvature="0"
           id="path46873"
           style="fill:#fff200;fill-opacity:1;fill-rule:nonzero;stroke:none"
           d="m 0,0 0,4.084 1.34,0 2.161,-1.864 0,1.864 1.476,0 L 4.977,0 3.637,0 1.476,2.225 1.476,0 0,0 Z" />
      </g>
      <g
         transform="matrix(43.345324,0,0,-43.345324,4269.2108,-1763.354)"
         id="g46875">
        <path
           inkscape:connector-curvature="0"
           id="path46877"
           style="fill:#fff200;fill-opacity:1;fill-rule:nonzero;stroke:none"
           d="m 0,0 0,4.084 3.354,0 0,-0.811 -1.689,0 0,-0.83 1.617,0 0,-0.779 -1.617,0 0,-0.852 1.752,0 L 3.417,0 0,0 Z" />
      </g>
      <g
         transform="matrix(43.345324,0,0,-43.345324,5075.2127,-1767.5672)"
         id="g46879">
        <path
           inkscape:connector-curvature="0"
           id="path46881"
           style="fill:#fff200;fill-opacity:1;fill-rule:nonzero;stroke:none"
           d="m 0,0 2.086,3.987 1.629,0 L 5.75,0 4.201,0 3.9,0.683 1.878,0.683 1.562,0 0,0 Z m 2.23,1.448 1.328,0 L 2.904,2.924 2.23,1.448 Z" />
      </g>
      <g
         transform="matrix(43.345324,0,0,-43.345324,5452.3474,-1767.5672)"
         id="g46883">
        <path
           inkscape:connector-curvature="0"
           id="path46885"
           style="fill:#fff200;fill-opacity:1;fill-rule:nonzero;stroke:none"
           d="m 0,0 0,3.987 2.166,0 C 2.889,3.987 3.423,3.891 3.77,3.698 4.116,3.505 4.29,3.208 4.29,2.807 4.29,2.6 4.229,2.422 4.107,2.273 3.986,2.124 3.802,2.003 3.557,1.91 3.672,1.856 3.773,1.784 3.861,1.693 3.948,1.601 4.031,1.481 4.107,1.331 L 4.809,0 3.189,0 2.726,0.892 C 2.557,1.216 2.415,1.427 2.301,1.524 2.186,1.621 2.04,1.669 1.862,1.669 l -0.229,0 L 1.633,0 0,0 Z m 1.633,2.353 0.31,0 c 0.286,0 0.488,0.035 0.606,0.106 0.118,0.072 0.177,0.19 0.177,0.355 0,0.163 -0.059,0.282 -0.177,0.356 -0.118,0.074 -0.31,0.111 -0.575,0.111 l -0.341,0 0,-0.928 z" />
      </g>
      <g
         transform="matrix(43.345324,0,0,-43.345324,4587.9593,-1743.2765)"
         id="g46887">
        <path
           inkscape:connector-curvature="0"
           id="path46889"
           style="fill:#fff200;fill-opacity:1;fill-rule:nonzero;stroke:none"
           d="m 0,0 0,4.548 1.386,0 2.679,-2.752 2.496,2.752 1.559,0 0,-4.548 24.444,0 -3.169,2.277 0,-1.816 -1.553,0 0,4.087 1.543,0 0,-1.726 1.817,1.726 1.543,0 -1.725,-1.726 6.902,-4.631 -31.728,0.015 0,3.025 -2.129,-2.328 -2.139,2.328 0,-3.025 -28.74,0 c -1.856,0 -3.301,1.442 -3.301,3.298 0,1.856 1.505,3.361 3.361,3.361 0.704,0 1.358,-0.217 1.898,-0.588 l -0.932,-1.659 c -0.261,0.231 -0.603,0.37 -0.979,0.37 -0.816,0 -1.478,-0.661 -1.478,-1.478 0,-0.816 0.619,-1.503 1.436,-1.503 L 0,0 Z" />
      </g>
      <path
         inkscape:connector-curvature="0"
         id="path46891"
         style="fill:#b5121b;fill-opacity:1;fill-rule:nonzero;stroke:none"
         d="m 3634.5876,-1951.3167 65.1913,0 0,177.0223 -65.1913,0 0,-177.0223 z" />
      <g
         transform="matrix(43.345324,0,0,-43.345324,3873.0649,-1774.277)"
         id="g46893">
        <path
           inkscape:connector-curvature="0"
           id="path46895"
           style="fill:#b5121b;fill-opacity:1;fill-rule:nonzero;stroke:none"
           d="m 0,0 0,4.084 1.34,0 2.161,-1.864 0,1.864 1.476,0 L 4.977,0 3.637,0 1.476,2.225 1.476,0 0,0 Z" />
      </g>
      <g
         transform="matrix(43.345324,0,0,-43.345324,4258.2878,-1774.277)"
         id="g46897">
        <path
           inkscape:connector-curvature="0"
           id="path46899"
           style="fill:#b5121b;fill-opacity:1;fill-rule:nonzero;stroke:none"
           d="m 0,0 0,4.084 3.354,0 0,-0.811 -1.689,0 0,-0.83 1.617,0 0,-0.779 -1.617,0 0,-0.852 1.752,0 L 3.417,0 0,0 Z" />
      </g>
      <g
         transform="matrix(43.345324,0,0,-43.345324,5064.2897,-1778.4815)"
         id="g46901">
        <path
           inkscape:connector-curvature="0"
           id="path46903"
           style="fill:#b5121b;fill-opacity:1;fill-rule:nonzero;stroke:none"
           d="m 0,0 2.086,3.987 1.629,0 L 5.75,0 4.201,0 3.9,0.683 1.879,0.683 1.562,0 0,0 Z m 2.23,1.448 1.328,0 L 2.904,2.924 2.23,1.448 Z" />
      </g>
      <g
         transform="matrix(43.345324,0,0,-43.345324,5441.4157,-1778.4815)"
         id="g46905">
        <path
           inkscape:connector-curvature="0"
           id="path46907"
           style="fill:#b5121b;fill-opacity:1;fill-rule:nonzero;stroke:none"
           d="m 0,0 0,3.987 2.166,0 C 2.889,3.987 3.423,3.891 3.77,3.698 4.117,3.505 4.29,3.208 4.29,2.807 4.29,2.601 4.229,2.422 4.108,2.273 3.986,2.124 3.802,2.003 3.557,1.91 3.672,1.857 3.773,1.784 3.861,1.693 3.949,1.602 4.031,1.481 4.108,1.331 L 4.809,0 3.189,0 2.726,0.892 C 2.557,1.217 2.416,1.428 2.301,1.524 2.186,1.621 2.04,1.67 1.862,1.67 L 1.633,1.67 1.633,0 0,0 Z m 1.633,2.353 0.31,0 c 0.286,0 0.488,0.035 0.606,0.107 0.118,0.071 0.177,0.189 0.177,0.354 0,0.163 -0.059,0.282 -0.177,0.356 -0.118,0.074 -0.31,0.111 -0.575,0.111 l -0.341,0 0,-0.928 z" />
      </g>
      <g
         transform="matrix(43.345324,0,0,-43.345324,4577.0449,-1754.1952)"
         id="g46909">
        <path
           inkscape:connector-curvature="0"
           id="path46911"
           style="fill:#b5121b;fill-opacity:1;fill-rule:nonzero;stroke:none"
           d="m 0,0 0,4.548 1.386,0 2.679,-2.752 2.496,2.752 1.559,0 0,-4.548 24.444,0 -3.169,2.278 0,-1.817 -1.553,0 0,4.087 1.543,0 0,-1.725 1.817,1.725 1.543,0 -1.725,-1.725 6.901,-4.632 -31.727,0.015 0,3.025 -2.129,-2.328 -2.139,2.328 0,-3.025 -28.74,0 c -1.856,0 -3.301,1.442 -3.301,3.298 0,1.856 1.505,3.361 3.36,3.361 0.705,0 1.359,-0.217 1.899,-0.588 l -0.932,-1.659 c -0.261,0.231 -0.603,0.37 -0.979,0.37 -0.816,0 -1.478,-0.661 -1.478,-1.477 0,-0.817 0.619,-1.504 1.436,-1.504 L 0,0 Z" />
      </g>
    </g>
  </g>
</svg>
